DungeonChunk.ufo
<glyph name="numbersign" format="2">
  <advance width="576"/>
  <unicode hex="0023"/>
  <outline>
    <contour>
      <point x="448" y="64" type="line"/>
      <point x="320" y="64" type="line"/>
      <point x="320" y="128" type="line"/>
      <point x="192" y="128" type="line"/>
      <point x="192" y="64" type="line"/>
      <point x="64" y="64" type="line"/>
      <point x="64" y="128" type="line"/>
      <point x="0" y="128" type="line"/>
      <point x="0" y="192" type="line"/>
      <point x="64" y="192" type="line"/>
      <point x="64" y="320" type="line"/>
      <point x="0" y="320" type="line"/>
      <point x="0" y="384" type="line"/>
      <point x="64" y="384" type="line"/>
      <point x="64" y="448" type="line"/>
      <point x="192" y="448" type="line"/>
      <point x="192" y="384" type="line"/>
      <point x="320" y="384" type="line"/>
      <point x="320" y="448" type="line"/>
      <point x="448" y="448" type="line"/>
      <point x="448" y="384" type="line"/>
      <point x="512" y="384" type="line"/>
      <point x="512" y="320" type="line"/>
      <point x="448" y="320" type="line"/>
      <point x="448" y="192" type="line"/>
      <point x="512" y="192" type="line"/>
      <point x="512" y="128" type="line"/>
      <point x="448" y="128" type="line"/>
    </contour>
    <contour>
      <point x="192" y="192" type="line"/>
      <point x="320" y="192" type="line"/>
      <point x="320" y="320" type="line"/>
      <point x="192" y="320" type="line"/>
    </contour>
  </outline>
</glyph>
<glyph name="quotesingle" format="2">
  <advance width="192"/>
  <unicode hex="0027"/>
  <outline>
    <contour>
      <point x="0" y="320" type="line"/>
      <point x="0" y="512" type="line"/>
      <point x="128" y="512" type="line"/>
      <point x="128" y="384" type="line"/>
      <point x="64" y="384" type="line"/>
      <point x="64" y="320" type="line"/>
    </contour>
  </outline>
</glyph>
<glyph name="plus" format="2">
  <advance width="512"/>
  <unicode hex="002B"/>
  <outline>
    <contour>
      <point x="320" y="64" type="line"/>
      <point x="192" y="64" type="line"/>
      <point x="192" y="192" type="line"/>
      <point x="64" y="192" type="line"/>
      <point x="64" y="320" type="line"/>
      <point x="192" y="320" type="line"/>
      <point x="192" y="448" type="line"/>
      <point x="320" y="448" type="line"/>
      <point x="320" y="320" type="line"/>
      <point x="448" y="320" type="line"/>
      <point x="448" y="192" type="line"/>
      <point x="320" y="192" type="line"/>
    </contour>
  </outline>
</glyph>
<glyph name="hyphen" format="2">
  <advance width="512"/>
  <unicode hex="002D"/>
  <outline>
    <contour>
      <point x="448" y="192" type="line"/>
      <point x="64" y="192" type="line"/>
      <point x="64" y="320" type="line"/>
      <point x="448" y="320" type="line"/>
    </contour>
  </outline>
</glyph>
<glyph name="one" format="2">
  <advance width="384"/>
  <unicode hex="0031"/>
  <outline>
    <contour>
      <point x="320" y="0" type="line"/>
      <point x="128" y="0" type="line"/>
      <point x="128" y="256" type="line"/>
      <point x="0" y="256" type="line"/>
      <point x="0" y="384" type="line"/>
      <point x="64" y="384" type="line"/>
      <point x="64" y="448" type="line"/>
      <point x="128" y="448" type="line"/>
      <point x="128" y="512" type="line"/>
      <point x="320" y="512" type="line"/>
    </contour>
  </outline>
</glyph>
<glyph name="three" format="2">
  <advance width="512"/>
  <unicode hex="0033"/>
  <outline>
    <contour>
      <point x="384" y="0" type="line"/>
      <point x="64" y="0" type="line"/>
      <point x="64" y="64" type="line"/>
      <point x="0" y="64" type="line"/>
      <point x="0" y="192" type="line"/>
      <point x="128" y="192" type="line"/>
      <point x="128" y="128" type="line"/>
      <point x="256" y="128" type="line"/>
      <point x="256" y="256" type="line"/>
      <point x="128" y="256" type="line"/>
      <point x="128" y="320" type="line"/>
      <point x="192" y="320" type="line"/>
      <point x="192" y="384" type="line"/>
      <point x="64" y="384" type="line"/>
      <point x="64" y="512" type="line"/>
      <point x="448" y="512" type="line"/>
      <point x="448" y="384" type="line"/>
      <point x="384" y="384" type="line"/>
      <point x="384" y="320" type="line"/>
      <point x="320" y="320" type="line"/>
      <point x="320" y="256" type="line"/>
      <point x="448" y="256" type="line"/>
      <point x="448" y="64" type="line"/>
      <point x="384" y="64" type="line"/>
    </contour>
  </outline>
</glyph>
<glyph name="seven" format="2">
  <advance width="448"/>
  <unicode hex="0037"/>
  <outline>
    <contour>
      <point x="256" y="0" type="line"/>
      <point x="64" y="0" type="line"/>
      <point x="64" y="256" type="line"/>
      <point x="128" y="256" type="line"/>
      <point x="128" y="384" type="line"/>
      <point x="0" y="384" type="line"/>
      <point x="0" y="512" type="line"/>
      <point x="384" y="512" type="line"/>
      <point x="384" y="320" type="line"/>
      <point x="320" y="320" type="line"/>
      <point x="320" y="192" type="line"/>
      <point x="256" y="192" type="line"/>
    </contour>
  </outline>
</glyph>
<glyph name="semicolon" format="2">
  <advance width="192"/>
  <unicode hex="003B"/>
  <outline>
    <contour>
      <point x="0" y="0" type="line"/>
      <point x="0" y="192" type="line"/>
      <point x="128" y="192" type="line"/>
      <point x="128" y="64" type="line"/>
      <point x="64" y="64" type="line"/>
      <point x="64" y="0" type="line"/>
    </contour>
    <contour>
      <point x="128" y="256" type="line"/>
      <point x="0" y="256" type="line"/>
      <point x="0" y="384" type="line"/>
      <point x="128" y="384" type="line"/>
    </contour>
  </outline>
</glyph>
<glyph name="K" format="2">
  <advance width="512"/>
  <unicode hex="004B"/>
  <outline>
    <contour>
      <point x="448" y="0" type="line"/>
      <point x="256" y="0" type="line"/>
      <point x="256" y="128" type="line"/>
      <point x="192" y="128" type="line"/>
      <point x="192" y="0" type="line"/>
      <point x="0" y="0" type="line"/>
      <point x="0" y="512" type="line"/>
      <point x="192" y="512" type="line"/>
      <point x="192" y="384" type="line"/>
      <point x="256" y="384" type="line"/>
      <point x="256" y="512" type="line"/>
      <point x="448" y="512" type="line"/>
      <point x="448" y="384" type="line"/>
      <point x="384" y="384" type="line"/>
      <point x="384" y="320" type="line"/>
      <point x="320" y="320" type="line"/>
      <point x="320" y="192" type="line"/>
      <point x="384" y="192" type="line"/>
      <point x="384" y="128" type="line"/>
      <point x="448" y="128" type="line"/>
    </contour>
  </outline>
</glyph>
<glyph name="O" format="2">
  <advance width="448"/>
  <unicode hex="004F"/>
  <outline>
    <contour>
      <point x="320" y="0" type="line"/>
      <point x="64" y="0" type="line"/>
      <point x="64" y="64" type="line"/>
      <point x="0" y="64" type="line"/>
      <point x="0" y="448" type="line"/>
      <point x="64" y="448" type="line"/>
      <point x="64" y="512" type="line"/>
      <point x="320" y="512" type="line"/>
      <point x="320" y="448" type="line"/>
      <point x="384" y="448" type="line"/>
      <point x="384" y="64" type="line"/>
      <point x="320" y="64" type="line"/>
    </contour>
    <contour>
      <point x="256" y="128" type="line"/>
      <point x="256" y="384" type="line"/>
      <point x="192" y="384" type="line"/>
      <point x="192" y="128" type="line"/>
    </contour>
  </outline>
</glyph>
<glyph name="underscore" format="2">
  <advance width="512"/>
  <unicode hex="005F"/>
  <outline>
    <contour>
      <point x="448" y="0" type="line"/>
      <point x="64" y="0" type="line"/>
      <point x="64" y="128" type="line"/>
      <point x="448" y="128" type="line"/>
    </contour>
  </outline>
</glyph>
<glyph name="n" format="2">
  <advance width="448"/>
  <unicode hex="006E"/>
  <outline>
    <contour>
      <point x="384" y="0" type="line"/>
      <point x="256" y="0" type="line"/>
      <point x="256" y="320" type="line"/>
      <point x="192" y="320" type="line"/>
      <point x="192" y="0" type="line"/>
      <point x="0" y="0" type="line"/>
      <point x="0" y="384" type="line"/>
      <point x="320" y="384" type="line"/>
      <point x="320" y="320" type="line"/>
      <point x="384" y="320" type="line"/>
    </contour>
  </outline>
</glyph>
<glyph name="u" format="2">
  <advance width="448"/>
  <unicode hex="0075"/>
  <outline>
    <contour>
      <point x="384" y="0" type="line"/>
      <point x="64" y="0" type="line"/>
      <point x="64" y="64" type="line"/>
      <point x="0" y="64" type="line"/>
      <point x="0" y="384" type="line"/>
      <point x="192" y="384" type="line"/>
      <point x="192" y="64" type="line"/>
      <point x="256" y="64" type="line"/>
      <point x="256" y="384" type="line"/>
      <point x="384" y="384" type="line"/>
    </contour>
  </outline>
</glyph>
<glyph name="x" format="2">
  <advance width="512"/>
  <unicode hex="0078"/>
  <outline>
    <contour>
      <point x="448" y="0" type="line"/>
      <point x="320" y="0" type="line"/>
      <point x="320" y="64" type="line"/>
      <point x="256" y="64" type="line"/>
      <point x="256" y="128" type="line"/>
      <point x="192" y="128" type="line"/>
      <point x="192" y="64" type="line"/>
      <point x="128" y="64" type="line"/>
      <point x="128" y="0" type="line"/>
      <point x="0" y="0" type="line"/>
      <point x="0" y="64" type="line"/>
      <point x="64" y="64" type="line"/>
      <point x="64" y="128" type="line"/>
      <point x="128" y="128" type="line"/>
      <point x="128" y="256" type="line"/>
      <point x="64" y="256" type="line"/>
      <point x="64" y="320" type="line"/>
      <point x="0" y="320" type="line"/>
      <point x="0" y="384" type="line"/>
      <point x="128" y="384" type="line"/>
      <point x="128" y="320" type="line"/>
      <point x="192" y="320" type="line"/>
      <point x="192" y="256" type="line"/>
      <point x="256" y="256" type="line"/>
      <point x="256" y="320" type="line"/>
      <point x="320" y="320" type="line"/>
      <point x="320" y="384" type="line"/>
      <point x="448" y="384" type="line"/>
      <point x="448" y="320" type="line"/>
      <point x="384" y="320" type="line"/>
      <point x="384" y="256" type="line"/>
      <point x="320" y="256" type="line"/>
      <point x="320" y="128" type="line"/>
      <point x="384" y="128" type="line"/>
      <point x="384" y="64" type="line"/>
      <point x="448" y="64" type="line"/>
    </contour>
  </outline>
</glyph>
<glyph name="bar" format="2">
  <advance width="384"/>
  <unicode hex="007C"/>
  <outline>
    <contour>
      <point x="320" y="0" type="line"/>
      <point x="128" y="0" type="line"/>
      <point x="128" y="512" type="line"/>
      <point x="320" y="512" type="line"/>
    </contour>
  </outline>
</glyph>
<glyph name="exclamdown" format="2">
  <advance width="256"/>
  <unicode hex="00A1"/>
  <outline>
    <contour>
      <point x="192" y="0" type="line"/>
      <point x="0" y="0" type="line"/>
      <point x="0" y="320" type="line"/>
      <point x="192" y="320" type="line"/>
    </contour>
    <contour>
      <point x="192" y="384" type="line"/>
      <point x="0" y="384" type="line"/>
      <point x="0" y="512" type="line"/>
      <point x="192" y="512" type="line"/>
    </contour>
  </outline>
</glyph>
<glyph name="sterling" format="2">
  <advance width="512"/>
  <unicode hex="00A3"/>
  <outline>
    <contour>
      <point x="128" y="64" type="line"/>
      <point x="320" y="64" type="line"/>
      <point x="320" y="0" type="line"/>
      <point x="128" y="0" type="line"/>
    </contour>
    <contour>
      <point x="320" y="128" type="line"/>
      <point x="128" y="128" type="line"/>
      <point x="128" y="256" type="line"/>
      <point x="256" y="256" type="line"/>
      <point x="256" y="448" type="line"/>
      <point x="192" y="448" type="line"/>
      <point x="192" y="320" type="line"/>
      <point x="0" y="320" type="line"/>
      <point x="0" y="448" type="line"/>
      <point x="64" y="448" type="line"/>
      <point x="64" y="512" type="line"/>
      <point x="384" y="512" type="line"/>
      <point x="384" y="448" type="line"/>
      <point x="448" y="448" type="line"/>
      <point x="448" y="256" type="line"/>
      <point x="384" y="256" type="line"/>
      <point x="384" y="192" type="line"/>
      <point x="320" y="192" type="line"/>
    </contour>
  </outline>
</glyph>
<glyph name="degree" format="2">
  <advance width="256"/>
  <unicode hex="00B0"/>
  <outline>
    <contour>
      <point x="192" y="320" type="line"/>
      <point x="0" y="320" type="line"/>
      <point x="0" y="512" type="line"/>
      <point x="192" y="512" type="line"/>
    </contour>
    <contour>
      <point x="128" y="384" type="line"/>
      <point x="128" y="448" type="line"/>
      <point x="64" y="448" type="line"/>
      <point x="64" y="384" type="line"/>
    </contour>
  </outline>
</glyph>
<glyph name="periodcentered" format="2">
  <advance width="320"/>
  <unicode hex="00B7"/>
  <outline>
    <contour>
      <point x="256" y="128" type="line"/>
      <point x="128" y="128" type="line"/>
      <point x="128" y="256" type="line"/>
      <point x="256" y="256" type="line"/>
    </contour>
  </outline>
</glyph>
<glyph name="ccaron" format="2">
  <advance width="448"/>
  <unicode hex="010D"/>
  <outline>
    <contour>
      <point x="192" y="64" type="line"/>
      <point x="384" y="64" type="line"/>
      <point x="384" y="0" type="line"/>
      <point x="64" y="0" type="line"/>
      <point x="64" y="64" type="line"/>
      <point x="0" y="64" type="line"/>
      <point x="0" y="320" type="line"/>
      <point x="64" y="320" type="line"/>
      <point x="64" y="384" type="line"/>
      <point x="384" y="384" type="line"/>
      <point x="384" y="320" type="line"/>
      <point x="192" y="320" type="line"/>
    </contour>
    <contour>
      <point x="384" y="448" type="line"/>
      <point x="256" y="448" type="line"/>
      <point x="256" y="512" type="line"/>
      <point x="192" y="512" type="line"/>
      <point x="192" y="448" type="line"/>
      <point x="64" y="448" type="line"/>
      <point x="64" y="512" type="line"/>
      <point x="128" y="512" type="line"/>
      <point x="128" y="576" type="line"/>
      <point x="192" y="576" type="line"/>
      <point x="192" y="640" type="line"/>
      <point x="256" y="640" type="line"/>
      <point x="256" y="576" type="line"/>
      <point x="320" y="576" type="line"/>
      <point x="320" y="512" type="line"/>
      <point x="384" y="512" type="line"/>
    </contour>
  </outline>
</glyph>
<glyph name="Emacron" format="2">
  <advance width="448"/>
  <unicode hex="0112"/>
  <outline>
    <contour>
      <point x="384" y="0" type="line"/>
      <point x="0" y="0" type="line"/>
      <point x="0" y="512" type="line"/>
      <point x="384" y="512" type="line"/>
      <point x="384" y="384" type="line"/>
      <point x="192" y="384" type="line"/>
      <point x="192" y="320" type="line"/>
      <point x="256" y="320" type="line"/>
      <point x="256" y="192" type="line"/>
      <point x="192" y="192" type="line"/>
      <point x="192" y="128" type="line"/>
      <point x="384" y="128" type="line"/>
    </contour>
    <contour>
      <point x="64" y="640" type="line"/>
      <point x="384" y="640" type="line"/>
      <point x="384" y="576" type="line"/>
      <point x="64" y="576" type="line"/>
    </contour>
  </outline>
</glyph>
<glyph name="hbar" format="2">
  <advance width="448"/>
  <unicode hex="0127"/>
  <outline>
    <contour>
      <point x="384" y="0" type="line"/>
      <point x="256" y="0" type="line"/>
      <point x="256" y="256" type="line"/>
      <point x="192" y="256" type="line"/>
      <point x="192" y="0" type="line"/>
      <point x="0" y="0" type="line"/>
      <point x="0" y="384" type="line"/>
      <point x="-64" y="384" type="line"/>
      <point x="-64" y="448" type="line"/>
      <point x="0" y="448" type="line"/>
      <point x="0" y="512" type="line"/>
      <point x="192" y="512" type="line"/>
      <point x="192" y="448" type="line"/>
      <point x="256" y="448" type="line"/>
      <point x="256" y="384" type="line"/>
      <point x="192" y="384" type="line"/>
      <point x="192" y="320" type="line"/>
      <point x="320" y="320" type="line"/>
      <point x="320" y="256" type="line"/>
      <point x="384" y="256" type="line"/>
    </contour>
  </outline>
</glyph>
<glyph name="Itilde" format="2">
  <advance width="320"/>
  <unicode hex="0128"/>
  <outline>
    <contour>
      <point x="-64" y="576" type="line"/>
      <point x="-64" y="704" type="line"/>
      <point x="128" y="704" type="line"/>
      <point x="128" y="640" type="line"/>
      <point x="192" y="640" type="line"/>
      <point x="192" y="704" type="line"/>
      <point x="256" y="704" type="line"/>
      <point x="256" y="576" type="line"/>
      <point x="64" y="576" type="line"/>
      <point x="64" y="640" type="line"/>
      <point x="0" y="640" type="line"/>
      <point x="0" y="576" type="line"/>
    </contour>
    <contour>
      <point x="192" y="0" type="line"/>
      <point x="0" y="0" type="line"/>
      <point x="0" y="512" type="line"/>
      <point x="192" y="512" type="line"/>
    </contour>
  </outline>
</glyph>
<glyph name="Ibreve" format="2">
  <advance width="320"/>
  <unicode hex="012C"/>
  <outline>
    <contour>
      <point x="192" y="0" type="line"/>
      <point x="0" y="0" type="line"/>
      <point x="0" y="512" type="line"/>
      <point x="192" y="512" type="line"/>
    </contour>
    <contour>
      <point x="192" y="576" type="line"/>
      <point x="0" y="576" type="line"/>
      <point x="0" y="640" type="line"/>
      <point x="-64" y="640" type="line"/>
      <point x="-64" y="768" type="line"/>
      <point x="64" y="768" type="line"/>
      <point x="64" y="704" type="line"/>
      <point x="128" y="704" type="line"/>
      <point x="128" y="768" type="line"/>
      <point x="256" y="768" type="line"/>
      <point x="256" y="640" type="line"/>
      <point x="192" y="640" type="line"/>
    </contour>
  </outline>
</glyph>
<glyph name="ibreve" format="2">
  <advance width="320"/>
  <unicode hex="012D"/>
  <outline>
    <contour>
      <point x="256" y="0" type="line"/>
      <point x="64" y="0" type="line"/>
      <point x="64" y="64" type="line"/>
      <point x="0" y="64" type="line"/>
      <point x="0" y="256" type="line"/>
      <point x="192" y="256" type="line"/>
      <point x="192" y="64" type="line"/>
      <point x="256" y="64" type="line"/>
    </contour>
    <contour>
      <point x="192" y="320" type="line"/>
      <point x="0" y="320" type="line"/>
      <point x="0" y="384" type="line"/>
      <point x="-64" y="384" type="line"/>
      <point x="-64" y="512" type="line"/>
      <point x="64" y="512" type="line"/>
      <point x="64" y="448" type="line"/>
      <point x="128" y="448" type="line"/>
      <point x="128" y="512" type="line"/>
      <point x="256" y="512" type="line"/>
      <point x="256" y="384" type="line"/>
      <point x="192" y="384" type="line"/>
    </contour>
  </outline>
</glyph>
<glyph name="iogonek" format="2">
  <advance width="384"/>
  <unicode hex="012F"/>
  <outline>
    <contour>
      <point x="192" y="-128" type="line"/>
      <point x="320" y="-128" type="line"/>
      <point x="320" y="-192" type="line"/>
      <point x="128" y="-192" type="line"/>
      <point x="128" y="-64" type="line"/>
      <point x="192" y="-64" type="line"/>
    </contour>
    <contour>
      <point x="192" y="-64" type="line"/>
      <point x="192" y="0" type="line"/>
      <point x="64" y="0" type="line"/>
      <point x="64" y="64" type="line"/>
      <point x="0" y="64" type="line"/>
      <point x="0" y="256" type="line"/>
      <point x="192" y="256" type="line"/>
      <point x="192" y="64" type="line"/>
      <point x="256" y="64" type="line"/>
      <point x="256" y="-64" type="line"/>
    </contour>
    <contour>
      <point x="0" y="384" type="line"/>
      <point x="192" y="384" type="line"/>
      <point x="192" y="320" type="line"/>
      <point x="0" y="320" type="line"/>
    </contour>
  </outline>
</glyph>
<glyph name="eng" format="2">
  <advance width="448"/>
  <unicode hex="014B"/>
  <outline>
    <contour>
      <point x="320" y="-64" type="line"/>
      <point x="192" y="-64" type="line"/>
      <point x="192" y="64" type="line"/>
      <point x="256" y="64" type="line"/>
      <point x="256" y="320" type="line"/>
      <point x="128" y="320" type="line"/>
      <point x="128" y="0" type="line"/>
      <point x="0" y="0" type="line"/>
      <point x="0" y="384" type="line"/>
      <point x="320" y="384" type="line"/>
      <point x="320" y="320" type="line"/>
      <point x="384" y="320" type="line"/>
      <point x="384" y="0" type="line"/>
      <point x="320" y="0" type="line"/>
    </contour>
  </outline>
</glyph>
<glyph name="Zcaron" format="2">
  <advance width="512"/>
  <unicode hex="017D"/>
  <outline>
    <contour>
      <point x="256" y="576" type="line"/>
      <point x="256" y="640" type="line"/>
      <point x="192" y="640" type="line"/>
      <point x="192" y="704" type="line"/>
      <point x="128" y="704" type="line"/>
      <point x="128" y="768" type="line"/>
      <point x="256" y="768" type="line"/>
      <point x="256" y="704" type="line"/>
      <point x="320" y="704" type="line"/>
      <point x="320" y="768" type="line"/>
      <point x="448" y="768" type="line"/>
      <point x="448" y="704" type="line"/>
      <point x="384" y="704" type="line"/>
      <point x="384" y="640" type="line"/>
      <point x="320" y="640" type="line"/>
      <point x="320" y="576" type="line"/>
    </contour>
    <contour>
      <point x="448" y="0" type="line"/>
      <point x="0" y="0" type="line"/>
      <point x="0" y="128" type="line"/>
      <point x="64" y="128" type="line"/>
      <point x="64" y="192" type="line"/>
      <point x="128" y="192" type="line"/>
      <point x="128" y="256" type="line"/>
      <point x="192" y="256" type="line"/>
      <point x="192" y="320" type="line"/>
      <point x="256" y="320" type="line"/>
      <point x="256" y="384" type="line"/>
      <point x="64" y="384" type="line"/>
      <point x="64" y="512" type="line"/>
      <point x="448" y="512" type="line"/>
      <point x="448" y="320" type="line"/>
      <point x="384" y="320" type="line"/>
      <point x="384" y="256" type="line"/>
      <point x="320" y="256" type="line"/>
      <point x="320" y="192" type="line"/>
      <point x="256" y="192" type="line"/>
      <point x="256" y="128" type="line"/>
      <point x="448" y="128" type="line"/>
    </contour>
  </outline>
</glyph>
